<svg id="ssec-image" data-name="ssec-image" xmlns="http://www.w3.org/2000/svg" width="20" height="20" viewBox="0 0 356.96 439.18">
  <defs>
	<style>
	  .cls-1 {
		fill: #003f9d;
	  }

	  .cls-2 {
		fill: #1d2f75;
	  }

	  .cls-3 {
		fill: #009be0;
	  }
	</style>
  </defs>
  <g>
	<path class="cls-3" d="M0,201.88h0v.16h0s0,.04,0,.06H0v.05H0c.08,8.75,3.45,17.47,10.09,24.15,0,0,0,0,.01.01,0,0,.02.02.03.03.01.01.03.03.04.04l81.85,81.85h83.83c0-8.87-3.38-17.74-10.13-24.52-.01-.01-.03-.03-.04-.04l-81.85-81.85H0v.05Z"/>
	<path class="cls-1" d="M59.28,340.96c-27.12,27.12-27.12,71.09,0,98.22h0l106.4-106.4c.14-.14.28-.29.42-.43,6.5-6.72,9.75-15.42,9.75-24.12h-83.83l-32.74,32.74Z"/>
	<path class="cls-2" d="M265.32,20.34c-27.12-27.12-71.1-27.12-98.22,0L10.17,177.27h0s0,0,0,0c-.01.01-.02.02-.03.03-.01.01-.02.02-.04.04h0C3.42,184.06.06,192.82,0,201.6h0v.05h0v.05h0v.05h0v.06h0s83.83,0,83.83,0L265.32,20.34h0Z"/>
  </g>
  <g>
	<path class="cls-1" d="M240.39,340.96c-27.12,27.12-27.12,71.1,0,98.22h0l106.4-106.4c6.78-6.78,10.17-15.67,10.17-24.55h-83.83l-32.74,32.74Z"/>
	<path class="cls-3" d="M264.94,201.82h-83.83c0,8.89,3.39,17.77,10.17,24.56l81.85,81.85h83.83c0-8.89-3.39-17.77-10.17-24.56l-81.85-81.85Z"/>
	<path class="cls-2" d="M355.87,110.9h0c-27.12-27-12-71.1-27.12-98.22,0l-66.37,66.37c-6.78,6.78-10.17,15.67-10.17,24.55h83.83l90.93-90.93Z"/>
  </g>
</svg>